#!OML:ASF F:\VICON\USERDATA\INSTALL\rory3\rory3.ASF
:FULLY-SPECIFIED
:DEGREES
175
root 0.144515 17.6134 -1.80152 1.5285 14.6054 1.50112
lowerback 9.27009 -1.04577 -2.69234
upperback 0.22965 -1.78555 -2.22961
thorax -4.95335 -0.840778 -0.569479
lowerneck -10.885 -12.9455 -15.8502
upperneck 19.2864 -17.4194 11.1317
head 10.3557 -8.25953 4.00761
rclavicle -4.1049e-014 1.11319e-014
rhumerus 31.6416 -17.9912 -35.2009
rradius 41.714
rwrist 28.435
rhand -11.433 10.3652
rfingers 7.12502
rthumb 14.6034 -19.1007
lclavicle -4.1049e-014 1.11319e-014
lhumerus 5.38989 -25.9963 87.8971
lradius 129.684
lwrist -6.00764
lhand -9.63449 5.95088
lfingers 7.12502
lthumb 16.3356 35.2829
rfemur -14.6185 -4.10034 10.8964
rtibia 37.1802
rfoot -24.1108 -15.0013
rtoes 0.193421
lfemur -21.7924 -4.9446 -2.17629
ltibia 47.3236
lfoot -6.66746 -10.2702
ltoes -24.979
176
root 0.11175 17.6209 -1.79082 1.40994 15.5855 1.2972
lowerback 9.18488 -1.27985 -2.96134
upperback 0.220775 -2.11204 -2.04127
thorax -4.89507 -0.993981 -0.181408
lowerneck -10.369 -12.8768 -15.9094
upperneck 19.0153 -17.4225 11.3892
head 10.1956 -8.26709 4.137
rclavicle 4.13472e-014 4.29375e-014
rhumerus 29.738 -17.7856 -36.2699
rradius 46.4477
rwrist 23.4117
rhand -12.1029 10.0779
rfingers 7.12502
rthumb 13.9578 -19.4336
lclavicle 4.13472e-014 4.29375e-014
lhumerus 4.81622 -26.1615 88.06
lradius 129.798
lwrist -6.15363
lhand -9.853 5.70715
lfingers 7.12502
lthumb 16.1252 35.0563
rfemur -14.3257 -4.3493 11.1957
rtibia 37.2927
rfoot -24.3739 -15.2644
rtoes 0.184608
lfemur -21.774 -5.02092 -1.84711
ltibia 47.5552
lfoot -6.06134 -9.9007
ltoes -25.3619
177
root 0.0818615 17.6267 -1.78349 1.31337 16.4919 1.09902
lowerback 9.11565 -1.54297 -3.24472
upperback 0.150363 -2.4806 -1.8319
thorax -4.90232 -1.16627 0.241756
lowerneck -9.88864 -12.7113 -16.0006
upperneck 18.9357 -17.2661 11.5204
head 10.0768 -8.21208 4.25376
rclavicle 2.06239e-014 -2.54444e-014
rhumerus 27.5555 -17.3112 -37.2784
rradius 51.7108
rwrist 18.7534
rhand -12.0717 9.60222
rfingers 7.12502
rthumb 13.9879 -19.9072
lclavicle 2.06239e-014 -2.54444e-014
lhumerus 4.06215 -26.1644 88.2389
lradius 129.903
lwrist -6.10482
lhand -10.1641 5.76689
lfingers 7.12502
lthumb 15.8256 35.1401
rfemur -14.0539 -4.67815 11.4579
rtibia 37.3521
rfoot -24.4482 -15.4574
rtoes 0.256995
lfemur -21.7158 -5.07233 -1.55199
ltibia 47.711
lfoot -5.20922 -9.59564
ltoes -25.3411
178
root 0.0540662 17.6307 -1.77691 1.21017 17.3871 0.822048
lowerback 8.96132 -1.858 -3.37313
upperback 0.187482 -2.89367 -1.62438
thorax -4.74876 -1.36783 0.575488
lowerneck -9.91938 -12.5918 -15.9044
upperneck 19.1071 -17.0649 11.2657
head 10.0778 -8.13326 4.186
rclavicle 6.32632e-014 -2.38542e-014
rhumerus 25.4124 -16.9233 -38.282
rradius 57.1209
rwrist 15.3266
rhand -11.4145 9.3499
rfingers 7.12502
rthumb 14.6212 -20.1147
lclavicle 6.32632e-014 -2.38542e-014
lhumerus 3.50013 -26.0403 88.2501
lradius 130.002
lwrist -5.87629
lhand -10.6404 5.84138
lfingers 7.12502
lthumb 15.3668 35.2503
rfemur -13.8066 -5.03998 11.792
rtibia 37.3704
rfoot -24.4723 -15.6944
rtoes 0.0827682
lfemur -21.5841 -5.12931 -1.18717
ltibia 47.804
lfoot -4.49982 -9.37512
ltoes -26.1258
179
root 0.0312965 17.6386 -1.76635 1.11764 18.0896 0.539545
lowerback 8.76532 -2.14809 -3.42363
upperback 0.215835 -3.2637 -1.40321
thorax -4.58112 -1.55076 0.869704
lowerneck -10.668 -12.5548 -15.8506
upperneck 19.9988 -16.823 10.5405
head 10.4239 -8.04595 3.92326
rclavicle 8.69683e-015 -4.77083e-015
rhumerus 23.2437 -16.5585 -39.3274
rradius 62.643
rwrist 13.5262
rhand -10.2115 9.17439
rfingers 7.12502
rthumb 15.7799 -20.2024
lclavicle 8.69683e-015 -4.77083e-015
lhumerus 2.96403 -25.7965 88.2657
lradius 130.044
lwrist -5.59717
lhand -11.2295 6.10701
lfingers 7.12502
lthumb 14.7994 35.5586
rfemur -13.5893 -5.24308 12.1147
rtibia 37.3309
rfoot -24.6177 -15.831
rtoes 0.183056
lfemur -21.2785 -5.0833 -0.862001
ltibia 47.85
lfoot -3.98622 -9.20391
ltoes -26.8694
